<?xml version="1.0" encoding="utf-8"?>
<!-- Generator: Adobe Illustrator 27.7.0, SVG Export Plug-In . SVG Version: 6.00 Build 0)  -->
<svg version="1.1" id="Layer_1" xmlns="http://www.w3.org/2000/svg" xmlns:xlink="http://www.w3.org/1999/xlink" x="0px" y="0px"
	 viewBox="0 0 800 300" style="enable-background:new 0 0 800 300;" xml:space="preserve">
<style type="text/css">
	.st0{enable-background:new    ;}
	.st1{fill:#FFFFFF;}
</style>
<g class="st0">
	<path class="st1" d="M2.4,144.4l3.9-15.5c2.8,2.6,5.8,4.6,9.2,5.9c3.3,1.4,6.7,2.1,10,2.1c2.4,0,4.2-0.4,5.4-1.3
		c1.2-0.8,1.9-2,1.9-3.5c0-2.5-2.5-4.4-7.5-5.7c-1.7-0.4-3.1-0.8-3.9-1.1c-5.8-1.8-9.9-4.1-12.3-6.7c-2.6-2.7-3.9-6.2-3.9-10.5
		c0-5.6,2-10,5.9-13.4c3.8-3.4,9.1-5,16-5c3.3,0,6.8,0.4,10.6,1.3c3.1,0.7,6.8,2,10.9,4l-3.9,14c-2.6-1.9-5.1-3.3-7.7-4.2
		c-2.5-0.9-5-1.4-7.7-1.4c-2.2,0-3.9,0.4-5,1.1c-1.1,0.7-1.6,1.7-1.6,3.1c0,2,2.5,3.7,7.5,5.1c1.6,0.5,2.5,0.8,2.5,0.8
		c6.5,2,11.1,4.3,13.8,7c2.6,2.9,3.8,6.6,3.8,11.1c0,5.9-2.1,10.7-6.4,14.3c-4.3,3.7-9.9,5.5-16.8,5.5c-4.8,0-9.2-0.6-13.2-1.7
		C9.9,148.5,6.1,146.7,2.4,144.4z"/>
	<path class="st1" d="M128.6,149.2v-31.5c0-4.9-0.5-8.4-1.6-10.3c-1.2-1.9-3.2-2.9-6-2.9c-3.6,0-6,1.3-7.4,3.9
		c-1.4,2.6-2.1,8-2.1,16.3v24.4H93.2v-31.5c0-5.1-0.6-8.6-1.8-10.4c-1.1-1.9-3-2.8-5.9-2.8c-3.6,0-6.1,1.3-7.5,3.8
		c-1.4,2.6-2.1,8.1-2.1,16.4v24.4H57.4V91.5h18.7v10.1c2.3-4,4.9-7,7.8-9c2.8-1.9,6.3-2.9,10.4-2.9c4.4,0,8,0.9,10.8,2.7
		c2.7,1.8,4.7,4.6,5.9,8.2c2.2-3.8,4.7-6.5,7.7-8.2c3-1.8,6.5-2.7,10.6-2.7c3.2,0,6.1,0.6,8.5,1.7c2.5,1.3,4.5,3,6.2,5.3
		c1.4,1.8,2.3,3.9,2.8,6.3c0.5,2.2,0.8,6.2,0.8,11.9v1.3v33H128.6z"/>
	<path class="st1" d="M157.7,149.2V91.5h19v57.7H157.7z M160.1,76.6h0.1c0-2.1,0.7-3.9,2.1-5.3c1.4-1.5,3.1-2.2,5-2.2
		c2.1,0,3.8,0.7,5.1,2.1c1.3,1.4,2,3.2,2,5.4c0,2.2-0.7,4-2.1,5.5c-1.4,1.5-3,2.2-5,2.2c-2,0-3.7-0.8-5.1-2.3
		C160.8,80.6,160.1,78.8,160.1,76.6z"/>
	<path class="st1" d="M192.2,149.2l-0.1-43.3h-8.1V91.5h8.1V74.3H211v17.2h8v14.4h-8v43.3H192.2z"/>
	<path class="st1" d="M224.9,149.2V60.6h18.7v31.1c0,1.5-0.1,3.4-0.2,5.8c-0.1,2.1-0.2,3.6-0.4,4.7c2.4-4.3,5.2-7.5,8.4-9.5
		c3.3-2,7.1-3,11.6-3c3.5,0,6.6,0.6,9.4,1.7c2.7,1.3,4.9,3,6.6,5.3c1.5,2.2,2.6,4.6,3.1,7c0.6,3.2,0.9,7.3,0.9,12.5v33h-19.1v-30.9
		c0-4.7-0.7-8-2.1-10.1c-1.4-2.1-3.6-3.1-6.8-3.1c-3.9,0-6.8,1.6-8.6,4.7c-1.8,3.1-2.7,8.2-2.7,15.2v24.2H224.9z"/>
</g>
<g class="st0">
	<path class="st1" d="M307,126.8v88.5h-17.5v-9.4c-2.4,3.9-5.2,6.8-8.2,8.7c-2.8,1.9-6.2,2.9-10,2.9c-7.5,0-13.6-2.8-18.1-8.5
		c-4.5-5.6-6.8-13.2-6.8-22.6c0-9.1,2.3-16.6,6.8-22.3c4.5-5.6,10.3-8.4,17.4-8.4c4.6,0,8.3,0.9,11.1,2.7c2.7,1.6,5.3,4.6,7.7,8.8
		c-0.1-1-0.3-2.6-0.4-4.7c-0.1-2.3-0.2-4.2-0.2-5.6v-30.2H307z M290.2,186.5c0-4.5-1.1-8.1-3.3-10.6c-2.3-2.6-5.4-3.9-9.2-3.9
		c-3.8,0-6.9,1.3-9.1,3.9c-2.2,2.6-3.3,6.1-3.3,10.6c0,4.5,1.1,8.1,3.3,10.7c2.2,2.5,5.2,3.8,9.1,3.8c3.8,0,6.9-1.3,9.2-3.8
		C289.1,194.7,290.2,191.1,290.2,186.5z"/>
	<path class="st1" d="M374,190.5h-41c0.1,4.5,1.2,7.9,3.1,10.3c2.1,2.4,5.1,3.7,9,3.7c2.8,0,5.3-0.6,7.3-1.8c2.1-1.3,3.6-3,4.5-5.1
		l14.3,6.2c-1.7,4.4-4.7,7.8-9.1,10.2c-4.3,2.4-9.7,3.7-16,3.7c-9.4,0-16.9-2.8-22.6-8.5c-5.7-5.5-8.5-12.8-8.5-22
		c0-8.9,2.8-16.4,8.5-22.4c5.7-5.9,12.8-8.9,21.6-8.9c8.9,0,15.9,3,21.1,9c2.6,3.1,4.6,6.7,5.9,10.8c1.3,4.1,1.9,8.8,1.9,14V190.5z
		 M355.3,179c-0.3-3.2-1.5-5.8-3.5-7.8c-2-2-4.4-3-7.3-3c-3,0-5.5,0.9-7.4,2.7c-2,2-3.2,4.7-3.7,8.2H355.3z"/>
	<path class="st1" d="M377,210.5l3.9-15.5c2.8,2.6,5.8,4.6,9.2,5.9c3.3,1.4,6.7,2.1,10,2.1c2.4,0,4.2-0.4,5.4-1.3
		c1.2-0.8,1.9-2,1.9-3.5c0-2.5-2.5-4.4-7.5-5.7c-1.7-0.4-3.1-0.8-3.9-1.1c-5.8-1.8-9.9-4.1-12.3-6.7c-2.6-2.7-3.9-6.2-3.9-10.5
		c0-5.6,2-10,5.9-13.4c3.8-3.4,9.1-5,16-5c3.3,0,6.8,0.4,10.6,1.3c3.1,0.7,6.8,2,10.9,4l-4,14c-2.6-1.9-5.1-3.3-7.7-4.2
		c-2.5-0.9-5-1.4-7.7-1.4c-2.2,0-3.9,0.4-5,1.1c-1.1,0.7-1.6,1.7-1.6,3.1c0,2,2.5,3.7,7.5,5.1c1.6,0.5,2.5,0.8,2.5,0.8
		c6.5,2,11.1,4.3,13.8,7c2.6,2.9,3.8,6.6,3.8,11.1c0,5.9-2.1,10.7-6.4,14.3c-4.3,3.7-9.9,5.5-16.8,5.5c-4.8,0-9.2-0.6-13.2-1.7
		S380.6,212.9,377,210.5z"/>
	<path class="st1" d="M431.5,215.3v-57.7h19v57.7H431.5z M433.9,142.8h0.1c0-2.1,0.7-3.9,2.1-5.3c1.4-1.5,3.1-2.2,5-2.2
		c2.1,0,3.8,0.7,5.1,2.1c1.3,1.4,2,3.2,2,5.4c0,2.2-0.7,4-2.1,5.5c-1.4,1.5-3,2.2-5,2.2c-2,0-3.7-0.8-5.1-2.3
		C434.6,146.7,433.9,144.9,433.9,142.8z"/>
	<path class="st1" d="M520.9,157.6v57.6c0,8.7-2.5,15.2-7.4,19.3c-2.4,2.1-5.5,3.6-9.4,4.7c-3.9,1.1-8.4,1.6-13.7,1.6
		c-8.5,0-15.1-1.7-19.8-5c-4.7-3.4-7.2-8.1-7.5-14.1h19.7c0.4,1.8,1.3,3.2,2.8,4.1c1.6,1,3.6,1.5,6.2,1.5c4.1,0,6.9-1,8.5-3.1
		c1.5-2.1,2.3-6.5,2.3-13.3v-5.2c-2,3.7-4.6,6.3-7.6,8.1c-3.2,1.8-6.8,2.7-11,2.7c-7.1,0-12.8-2.8-17.1-8.3
		c-2.1-2.7-3.7-5.9-4.8-9.6c-1.1-3.7-1.7-7.8-1.7-12.4c0-9.2,2.3-16.6,6.8-22.1c2.2-2.7,4.9-4.8,7.9-6.1c3-1.4,6.4-2,10.2-2
		c4,0,7.5,0.9,10.5,2.7c2.9,1.7,5.4,4.5,7.6,8.4v-9.3H520.9z M504.2,186.3c0-4.4-1.1-7.9-3.3-10.5c-2.3-2.5-5.4-3.8-9.3-3.8
		s-6.9,1.3-9.3,3.8c-2.3,2.5-3.4,6-3.4,10.5c0,4.5,1.1,7.9,3.4,10.4c2.3,2.6,5.4,3.9,9.3,3.9c3.8,0,6.9-1.3,9.2-3.9
		C503,194.3,504.2,190.8,504.2,186.3z"/>
	<path class="st1" d="M532.3,215.3v-57.7h17.4v11.7c2.5-4.6,5.4-8,8.7-10.3c3.3-2.2,7.2-3.3,11.9-3.3c3.5,0,6.6,0.6,9.4,1.7
		c2.7,1.3,4.9,3,6.6,5.3c1.5,2.2,2.5,4.5,3.1,7c0.6,3.2,0.9,7.3,0.9,12.5v33h-19.1v-30.9c0-4.7-0.7-8-2.1-10.1
		c-1.4-2.1-3.6-3.1-6.8-3.1c-3.9,0-6.8,1.6-8.6,4.7c-1.8,3.1-2.7,8.2-2.7,15.2v24.2H532.3z"/>
</g>
<g class="st0">
	<path class="st1" d="M597,192.5v-43.3h-8.1v-14.4h8.1V123c0-6.7,1.7-11.7,5.1-15.2c3.4-3.4,8.5-5,15.3-5c0.5,0,1.6,0.1,3.5,0.2
		c2,0.3,3.4,0.6,4.3,0.9v15.5c-0.6-0.3-1.4-0.5-2.4-0.8c-1-0.2-1.7-0.2-2-0.2c-1.9,0-3.1,0.6-3.9,1.7c-0.8,1.2-1.2,3.1-1.2,5.5v9.2
		h9.5v14.4h-9.5v43.3H597z"/>
	<path class="st1" d="M630.1,192.5v-57.7h19v57.7H630.1z M632.5,120h0.1c0-2.1,0.7-3.9,2.1-5.3c1.4-1.5,3.1-2.2,5-2.2
		c2.1,0,3.8,0.7,5.1,2.1c1.3,1.4,2,3.2,2,5.4c0,2.2-0.7,4-2.1,5.5c-1.4,1.5-3,2.2-5,2.2c-2,0-3.7-0.8-5.1-2.3
		C633.2,123.9,632.5,122.1,632.5,120z"/>
	<path class="st1" d="M661.8,192.5v-57.7h17.9v13.6c1.9-5,4.4-8.7,7.5-11.1c3.2-2.5,7.1-3.7,11.7-3.7c1,0,1.8,0,2.3,0.1
		c0.4,0,0.7,0.1,1.1,0.1c0.3,0,0.7,0.1,1.2,0.1l-1.8,18.5c-1.3-0.5-2.5-0.8-3.4-1c-1.4-0.2-2.5-0.2-3.1-0.2c-4.6,0-8.2,1.5-10.7,4.6
		c-2.5,3-3.7,7.3-3.7,12.9v23.9H661.8z"/>
	<path class="st1" d="M778.8,192.5V161c0-4.9-0.5-8.4-1.6-10.3c-1.2-1.9-3.2-2.9-6-2.9c-3.6,0-6,1.3-7.4,3.9
		c-1.4,2.6-2.1,8-2.1,16.3v24.4h-18.4V161c0-5.1-0.6-8.6-1.8-10.4c-1.1-1.9-3-2.8-5.9-2.8c-3.6,0-6.1,1.3-7.5,3.8
		c-1.4,2.6-2.1,8.1-2.1,16.4v24.4h-18.5v-57.7h18.7v10.1c2.3-4,4.9-7,7.8-9c2.8-1.9,6.3-2.9,10.4-2.9c4.4,0,8,0.9,10.8,2.7
		c2.7,1.8,4.7,4.6,5.9,8.2c2.2-3.8,4.7-6.5,7.7-8.2c3-1.8,6.5-2.7,10.6-2.7c3.2,0,6.1,0.6,8.5,1.7c2.5,1.3,4.5,3,6.2,5.3
		c1.4,1.8,2.3,3.9,2.8,6.3c0.5,2.2,0.8,6.2,0.8,11.9v1.3v33H778.8z"/>
</g>
</svg>
